<svg id="图层_1" data-name="图层 1" xmlns="http://www.w3.org/2000/svg" viewBox="0 0 220.13 58.62"><defs><style>.cls-1{font-size:8.14px;fill:#999;font-family:PingFang-SC-Regular, PingFang SC;letter-spacing:0.03em;}.cls-2{fill:#ccc;}.cls-3{fill-opacity:0;}.cls-4{fill:#35d48f;}.cls-5{fill:#fff;}.cls-6{fill:#d52b2a;}.cls-7{fill:#e89214;}.cls-8{fill:#040000;}.cls-9{fill:#050101;}</style></defs><title>未标题-3</title><text class="cls-1" transform="translate(152.52 44.6)">新浪微博战略投资</text><g id="矩形_2" data-name="矩形 2"><rect class="cls-2" x="135.13" y="19.96" width="1" height="20"/></g><rect class="cls-3" width="122.13" height="58.62"/><path class="cls-4" d="M40.15,10.44a3,3,0,0,0-.85,2.11,1.22,1.22,0,1,1,0,1.92,3.05,3.05,0,0,0,1,2.12c1.33.8,5.35-2.45,5.33-3.22S41.42,9.56,40.15,10.44Z" transform="translate(-5.87 5.96)"/><path class="cls-4" d="M126.29,9.48h-12.8a.79.79,0,0,0-.79.79h0v.87a.79.79,0,0,0,.79.79h6.3a.8.8,0,0,1,.8.8h0V31.6h0v1a2.47,2.47,0,0,1-.93,1.9c-1.33,1-3.43,2.83-1.92,2.87a24.77,24.77,0,0,0,6.32-1.66.82.82,0,0,0,.53-.77V12.73a.8.8,0,0,1,.8-.8h.9a.79.79,0,0,0,.79-.79h0v-.86a.78.78,0,0,0-.78-.8Z" transform="translate(-5.87 5.96)"/><path class="cls-4" d="M77.52,16.9h0a1.71,1.71,0,0,1,1.71,1.71v9.44a1.7,1.7,0,0,1-1.71,1.71h0a1.71,1.71,0,0,1-1.71-1.71V18.61A1.72,1.72,0,0,1,77.52,16.9Z" transform="translate(-5.87 5.96)"/><path class="cls-4" d="M118.4,14.22h-4.25a.79.79,0,0,0-.79.79h0V32.25a.79.79,0,0,0,.79.8l.21,0,4.24-1.12a.8.8,0,0,0,.58-.77V15A.79.79,0,0,0,118.4,14.22ZM117.85,28a1.58,1.58,0,0,1-3.15,0V17.54a1.58,1.58,0,1,1,3.15,0Z" transform="translate(-5.87 5.96)"/><path class="cls-4" d="M100.81,11.48h-7a.8.8,0,0,0-.79.79h0v19a.79.79,0,0,0,.79.79H94l7-1.33a.79.79,0,0,0,.65-.78V12.27a.8.8,0,0,0-.8-.79Zm-.9,14.72a1.57,1.57,0,0,1-1.58,1.57h0a1.57,1.57,0,0,1-1.57-1.57h0V15a1.57,1.57,0,0,1,1.57-1.57h0A1.57,1.57,0,0,1,99.91,15h0Z" transform="translate(-5.87 5.96)"/><path class="cls-4" d="M110.77,9.92h-7.11a.79.79,0,0,0-.79.79h0l-.09,23.21v5.89a.8.8,0,0,0,.8.8,1,1,0,0,0,.23,0l2.9-.88a.78.78,0,0,0,.56-.75V36.16a.79.79,0,0,1,.52-.74L111,34.2a.8.8,0,0,0,.51-.75V10.69A.79.79,0,0,0,110.77,9.92Zm-1.09,20.76a1.32,1.32,0,0,1-1.29,1.22h0a1.31,1.31,0,0,1-1.32-1.22V13.12a1.32,1.32,0,0,1,1.32-1.32h0a1.32,1.32,0,0,1,1.29,1.32Z" transform="translate(-5.87 5.96)"/><path class="cls-4" d="M87.7,12.36H86.48a.8.8,0,0,1-.8-.79h0V9.39a.79.79,0,0,0-.79-.79H82.32a.79.79,0,0,0-.79.79h0v2.13a.79.79,0,0,1-.79.79H73.33a.8.8,0,0,0-.79.79h0v1.15a.8.8,0,0,0,.79.8h7.41a.79.79,0,0,1,.79.79h0V30.68h0v.79a2.44,2.44,0,0,1-1,1.94c-1.37,1.07-3.53,2.91-2,3a25,25,0,0,0,6.47-1.71.83.83,0,0,0,.55-.8V31.41h0V15.85a.79.79,0,0,1,.8-.79h1.22a.79.79,0,0,0,.79-.8h0V13.1A.78.78,0,0,0,87.7,12.36Z" transform="translate(-5.87 5.96)"/><path class="cls-4" d="M71.42,14c-.24,6-1.55,10.49-4.07,13.82a.29.29,0,0,0,0,.33A28.63,28.63,0,0,0,70,31.66c4.6,5.16,1.43,3.28-.42,2a24.29,24.29,0,0,1-4.09-3.48.21.21,0,0,0-.29,0,29.07,29.07,0,0,1-3.67,2.88c-1.14.8-5,2.79-.4-1.94a24.49,24.49,0,0,0,2.44-2.95.29.29,0,0,0,0-.33c-2.06-3.08-3-5.92-3.66-11-.06-.5.33-.47.33-.47H63.1a.45.45,0,0,1,.43.44,19.67,19.67,0,0,0,1.88,7.75.17.17,0,0,0,.25.05.12.12,0,0,0,0-.05,23,23,0,0,0,2.19-9h0a.88.88,0,0,0-1-.8H60.65A.89.89,0,0,1,59.7,14V12.86a.88.88,0,0,1,.95-.79h9.83a.88.88,0,0,1,.94.79V14" transform="translate(-5.87 5.96)"/><path class="cls-4" d="M14.21,10.44a3,3,0,0,0-.85,2.11,1.22,1.22,0,1,1,0,1.92,3,3,0,0,0,1.06,2.13c1.33.8,5.35-2.45,5.32-3.21S15.49,9.56,14.21,10.44Z" transform="translate(-5.87 5.96)"/><path class="cls-4" d="M47.87,17A6.64,6.64,0,0,0,36.66,9.92,25,25,0,0,0,29.25,8.7a24.89,24.89,0,0,0-7.41,1.22A6.64,6.64,0,0,0,10.62,17a14.37,14.37,0,0,0-3.87,9.29C6.75,30.74,9.26,34.44,14,37a32.62,32.62,0,0,0,15.21,3.43A32.68,32.68,0,0,0,44.46,37c4.75-2.58,7.27-6.28,7.27-10.72A14.34,14.34,0,0,0,47.87,17ZM42.22,8.7a4.89,4.89,0,1,1-4.89,4.88A4.88,4.88,0,0,1,42.22,8.7Zm-25.94,0a4.89,4.89,0,1,1-4.89,4.88A4.88,4.88,0,0,1,16.28,8.7ZM43.61,35.42a31.34,31.34,0,0,1-14.36,3.19,31.39,31.39,0,0,1-14.38-3.19A17.55,17.55,0,0,1,12.67,34,21.75,21.75,0,0,1,16,32.56a39.69,39.69,0,0,1,13.28-2.05c9,0,14.48,2.36,16.56,3.5A16.22,16.22,0,0,1,43.61,35.42Zm3.66-2.69c-1.85-1.12-7.66-4-18-4s-16.18,2.93-18,4.05A10.09,10.09,0,0,1,9.83,30.9c5-.92,5.53-3.86,2.38-3.21a13,13,0,0,1-3.52.18,8.93,8.93,0,0,1-.13-1.55,9.87,9.87,0,0,1,.08-1.22c6.36,2.51,9-.48,5.45-1.28a14.7,14.7,0,0,1-4.47-2,15,15,0,0,1,2.16-3.35,6.64,6.64,0,0,0,10.85-6.87,22.34,22.34,0,0,1,13.25,0,6.64,6.64,0,0,0,10.83,6.87,15,15,0,0,1,2.16,3.35,14.59,14.59,0,0,1-4.47,2c-3.52.81-.91,3.79,5.45,1.28a9.87,9.87,0,0,1,.08,1.22,8.85,8.85,0,0,1-.09,1.54,13,13,0,0,1-3.52-.19c-3.2-.65-2.66,2.31,2.3,3.23a10.78,10.78,0,0,1-1.38,1.84Z" transform="translate(-5.87 5.96)"/><path class="cls-4" d="M34.11,19a.33.33,0,0,0-.44-.13L29.23,21.2a.9.9,0,0,1-.64.09l-2.06-.48a.4.4,0,0,0-.3.75l2.36,1.72a.75.75,0,0,0,.36.1.81.81,0,0,0,.45-.15L34,19.42A.33.33,0,0,0,34.11,19Z" transform="translate(-5.87 5.96)"/><path class="cls-5" d="M159.14,19.46c0,3,3.92,5.45,8.76,5.45s8.75-2.44,8.75-5.45S172.73,14,167.9,14s-8.76,2.44-8.76,5.45" transform="translate(-5.87 5.96)"/><path class="cls-6" d="M176.66,15.14c-.36-.11-.61-.18-.42-.66a2.74,2.74,0,0,0,0-2.58c-.84-1.2-3.14-1.13-5.77,0,0,0-.83.36-.62-.29.41-1.31.35-2.4-.28-3-1.43-1.42-5.23.06-8.49,3.31-2.43,2.44-3.85,5-3.85,7.26,0,4.28,5.48,6.88,10.85,6.88,7,0,11.71-4.09,11.71-7.33C179.8,16.71,178.15,15.6,176.66,15.14Zm-8.56,9.33c-4.28.42-8-1.52-8.25-4.33s3-5.43,7.24-5.85,8,1.51,8.26,4.32S172.38,24,168.1,24.47Z" transform="translate(-5.87 5.96)"/><path class="cls-7" d="M181.33,7.31a6.85,6.85,0,0,0-6.51-2.11h0a1,1,0,0,0-.77,1.18,1,1,0,0,0,1.18.76,4.87,4.87,0,0,1,5.65,6.26h0a1,1,0,0,0,.64,1.25,1,1,0,0,0,1.24-.64h0a6.83,6.83,0,0,0-1.43-6.7" transform="translate(-5.87 5.96)"/><path class="cls-7" d="M178.72,9.67a3.31,3.31,0,0,0-3.17-1,.85.85,0,0,0,.36,1.67h0a1.62,1.62,0,0,1,1.55.5,1.64,1.64,0,0,1,.34,1.59h0a.85.85,0,1,0,1.62.53,3.33,3.33,0,0,0-.7-3.26" transform="translate(-5.87 5.96)"/><path class="cls-8" d="M168.53,16.45a4.68,4.68,0,0,0-5.23,2.28,3.18,3.18,0,0,0,2,4.53,4.63,4.63,0,0,0,5.52-2.34A3.2,3.2,0,0,0,168.53,16.45ZM167,21.13a1.61,1.61,0,0,1-2,.64,1.13,1.13,0,0,1-.43-1.71,1.63,1.63,0,0,1,1.92-.65A1.14,1.14,0,0,1,167,21.13Zm1.37-1.75a.62.62,0,0,1-.74.27.42.42,0,0,1-.19-.64.59.59,0,0,1,.72-.27A.43.43,0,0,1,168.34,19.38Z" transform="translate(-5.87 5.96)"/><path class="cls-9" d="M187.27,15.6l.57.3c-.53.69-1,1.31-1.52,1.87a5.11,5.11,0,0,0-.54-.33A20.76,20.76,0,0,0,187.27,15.6Zm-.46-1h1.94l.23-.87h.69l-.24.87h1.87l-.16.59h-1.87l-.64,2.4a1.17,1.17,0,0,1-1.23,1h-.92c0-.2.06-.43.08-.7a8.11,8.11,0,0,0,.85.06.57.57,0,0,0,.58-.47l.6-2.25h-1.94Zm.19-1.72h1.53a11.29,11.29,0,0,0-.47-1.06l.6-.35a10.64,10.64,0,0,1,.53,1l-.63.37h1.25c.48-.48.92-1,1.34-1.42l.57.37c-.41.38-.79.73-1.16,1.05H192l-.15.59h-5Zm.88-2.13h2.05c-.07-.25-.15-.52-.25-.82l.69-.27c.11.31.21.63.29.94l-.35.15h2l-.16.59h-4.45Zm2.12,4.9c.23.46.42.89.58,1.28l-.71.41a10,10,0,0,0-.53-1.33Zm3-5.17a20,20,0,0,0,3.73-.38l.06.71c-1.3.16-2.39.26-3.29.31l-.57,2.14h3.47l-.17.62h-1.36l-1.29,4.82h-.7l1.29-4.82h-1.41l-.12.45a8.49,8.49,0,0,1-2.57,4.39c-.1-.19-.22-.38-.35-.58A7.2,7.2,0,0,0,192,14.31Z" transform="translate(-5.87 5.96)"/><path class="cls-9" d="M197.6,14.94l.68.31-2,3.5-.76-.27Q196.52,16.93,197.6,14.94Zm-.21-2.7a17.47,17.47,0,0,1,1.33,1.25l-.71.6c-.55-.62-1-1.06-1.24-1.32Zm1-2.38c.39.37.81.82,1.28,1.34l-.71.57c-.52-.64-.91-1.11-1.19-1.4Zm6.44,5.28.31.57c-.67.36-1.44.74-2.31,1.12a3.87,3.87,0,0,0,2.07,1c-.19.17-.43.41-.72.71a4.08,4.08,0,0,1-3.09-3.7h-1.15l-.78,2.91c.82-.26,1.57-.53,2.23-.79a6.42,6.42,0,0,0-.2.78c-.77.25-1.54.52-2.31.82a5.79,5.79,0,0,0-.54.26l-.27-.65a.76.76,0,0,0,.39-.54l1.84-6.84h2.4c-.06-.29-.13-.59-.22-.88l.74-.26c.1.36.2.74.27,1.14h2.36l-1.15,4.31H204l.07-.26h-2.22a4,4,0,0,0,.63,1.55A23.83,23.83,0,0,0,204.82,15.14Zm-.62-.92.3-1.13h-4.11l-.3,1.13Zm.76-2.83h-4.11l-.3,1.12h4.11Z" transform="translate(-5.87 5.96)"/><path class="cls-9" d="M205.86,15.13a16.56,16.56,0,0,0,2.59-2.85l.56.28c-.37.48-.73.93-1.1,1.34l-1.29,4.82H206l1-3.85c-.36.36-.73.69-1.1,1C205.9,15.62,205.89,15.38,205.86,15.13Zm.84-3a13.26,13.26,0,0,0,2.44-2.4l.51.32a16.4,16.4,0,0,1-2.91,2.79C206.73,12.65,206.72,12.41,206.7,12.18Zm3.83,3.57h-1.26l-.11.42a3.67,3.67,0,0,1-1.59,2.35,4.14,4.14,0,0,0-.27-.59,2.72,2.72,0,0,0,1.24-1.83l.26-1h2.53l-.42,1.6,1.23-.86c0,.27,0,.5,0,.71-.42.27-.91.6-1.46,1l-.48.37-.32-.59a1.24,1.24,0,0,0,.43-.66Zm-1.44-2.11h3l-.17.64h-3Zm0-.82.6-2.25h.61l-.44,1.62h.78l.63-2.33h.63l-.63,2.33h.78l.44-1.63h.61l-.69,2.55h-.6l.07-.29Zm5.33-3.09.62.11c-.25.57-.52,1.11-.79,1.62h2.05l-.18.66h-.45a16.19,16.19,0,0,1-2,4.17,4,4,0,0,0,1,1.75c-.2.23-.4.47-.58.7a4.8,4.8,0,0,1-.92-1.78,14,14,0,0,1-2,1.85,5,5,0,0,0-.32-.58,11.38,11.38,0,0,0,2.13-2,8.29,8.29,0,0,1,.12-2.86c-.16.24-.33.47-.5.69a3.43,3.43,0,0,0-.33-.48A15.44,15.44,0,0,0,214.45,9.73Zm.6,2.39h-1.14l0,.09a9.23,9.23,0,0,0-.34,3.29A17.7,17.7,0,0,0,215.05,12.12Z" transform="translate(-5.87 5.96)"/><path class="cls-9" d="M216.38,12.31h1L218,9.72h.71l-.7,2.59H219l-.17.66h-.92l-1.55,5.79h-.7L217.16,13h-1ZM217.73,16h4.88l.14-.53h.7l-.14.53h1.53l-.16.59h-1.53l-.28,1.05a1.32,1.32,0,0,1-1.42,1l-1.34,0c0-.19,0-.42.07-.68.5.05.95.07,1.35.07a.62.62,0,0,0,.66-.5l.26-1h-4.88Zm5.77-.57.13-.51h-1.77l-.16.59H221l.16-.59h-1.76l-.18.69h-.69l1-3.6H222l.16-.6H219.2l.16-.59h2.91l.29-1.07h.68L223,10.79h3l-.16.59h-3l-.16.6h2.46l-.92,3.42Zm-4.94,1.66.55-.46a11.76,11.76,0,0,1,1,.9l-.59.49A10.3,10.3,0,0,0,218.56,17.06Zm1-2.72h1.76l.17-.62h-1.76Zm.32-1.17h1.75l.17-.62H220ZM222,14.34h1.78l.17-.62h-1.78Zm2.26-1.79h-1.78l-.16.62h1.78Zm.6-1.78c-.32-.2-.67-.39-1-.58l.42-.47c.41.19.76.37,1.06.54Z" transform="translate(-5.87 5.96)"/><path class="cls-9" d="M190.38,21.35l-2.26,3.82h-.54l-.2-2.84-1.64,2.84h-.55l-.26-3.82h.67l.17,2.85,1.65-2.85h.49l.2,2.86,1.73-2.86Z" transform="translate(-5.87 5.96)"/><path class="cls-9" d="M193.32,24l.59.11A2.33,2.33,0,0,1,193,25a2.54,2.54,0,0,1-1.24.32,1.49,1.49,0,0,1-1.28-.55,1.67,1.67,0,0,1-.15-1.45,2.71,2.71,0,0,1,1-1.48,2.5,2.5,0,0,1,1.57-.56,1.38,1.38,0,0,1,1.21.52,1.82,1.82,0,0,1,.11,1.55h-3.12c-.15.58-.12,1,.1,1.17a1.09,1.09,0,0,0,.78.3A1.6,1.6,0,0,0,193.32,24Zm.28-1.16a1.42,1.42,0,0,0,0-.57.68.68,0,0,0-.26-.43.87.87,0,0,0-.58-.18,1.56,1.56,0,0,0-.93.32,1.7,1.7,0,0,0-.62.86Z" transform="translate(-5.87 5.96)"/><path class="cls-9" d="M196.4,21.35l-1,3.82h-.67l1-3.82Zm.39-1.35-.18.66h-.72l.18-.66Z" transform="translate(-5.87 5.96)"/><path class="cls-9" d="M197,25.17h-.32L198.09,20h.67l-.53,2a2,2,0,0,1,1.46-.74,1.23,1.23,0,0,1,1.1.52,1.83,1.83,0,0,1,.1,1.51A2.89,2.89,0,0,1,200,24.7a2.11,2.11,0,0,1-1.43.58,1.1,1.1,0,0,1-1.14-.74Zm.75-1.5a.88.88,0,0,0,.17.86,1,1,0,0,0,.69.26,1.34,1.34,0,0,0,.93-.39,2.28,2.28,0,0,0,.6-1.08,1.69,1.69,0,0,0,0-1.16.7.7,0,0,0-.72-.43,1.44,1.44,0,0,0-.84.3,1.74,1.74,0,0,0-.61.78Z" transform="translate(-5.87 5.96)"/><path class="cls-9" d="M202.89,25.28a1.28,1.28,0,0,1-1.22-.59,1.83,1.83,0,0,1-.11-1.44,2.63,2.63,0,0,1,.95-1.46,2.42,2.42,0,0,1,1.53-.55,1.34,1.34,0,0,1,1.24.57,1.75,1.75,0,0,1,.13,1.44,2.72,2.72,0,0,1-.94,1.46A2.46,2.46,0,0,1,202.89,25.28Zm.18-.5a1.47,1.47,0,0,0,1-.37,2.27,2.27,0,0,0,.65-1.17,1.35,1.35,0,0,0-.05-1.15.87.87,0,0,0-.75-.36,1.48,1.48,0,0,0-.94.36,2.2,2.2,0,0,0-.65,1.15,1.46,1.46,0,0,0,0,1.19A.84.84,0,0,0,203.07,24.78Z" transform="translate(-5.87 5.96)"/><path class="cls-9" d="M207,24.32l-.23.85h-1l.23-.85Z" transform="translate(-5.87 5.96)"/><path class="cls-9" d="M211,23.83l.58.1a2.4,2.4,0,0,1-.84,1,2.05,2.05,0,0,1-1.18.36,1.24,1.24,0,0,1-1.2-.59,1.93,1.93,0,0,1-.08-1.42,2.86,2.86,0,0,1,.88-1.45,2.13,2.13,0,0,1,1.49-.58,1.26,1.26,0,0,1,1,.37,1.21,1.21,0,0,1,.27,1l-.63.1c.05-.63-.2-.95-.77-.95a1.33,1.33,0,0,0-1,.42,2.43,2.43,0,0,0-.58,1.09,1.69,1.69,0,0,0,0,1.14.7.7,0,0,0,.72.4A1.44,1.44,0,0,0,211,23.83Z" transform="translate(-5.87 5.96)"/><path class="cls-9" d="M213.63,25.28a1.3,1.3,0,0,1-1.22-.59,1.84,1.84,0,0,1-.1-1.44,2.61,2.61,0,0,1,.94-1.46,2.42,2.42,0,0,1,1.53-.55,1.35,1.35,0,0,1,1.25.57,1.79,1.79,0,0,1,.13,1.44,2.73,2.73,0,0,1-.95,1.46A2.44,2.44,0,0,1,213.63,25.28Zm.19-.5a1.44,1.44,0,0,0,1-.37,2.21,2.21,0,0,0,.66-1.17,1.39,1.39,0,0,0-.05-1.15.88.88,0,0,0-.75-.36,1.44,1.44,0,0,0-.94.36,2.13,2.13,0,0,0-.65,1.15,1.51,1.51,0,0,0,0,1.19A.86.86,0,0,0,213.82,24.78Z" transform="translate(-5.87 5.96)"/><path class="cls-9" d="M222.39,25.17h-.65l.64-2.38a2.53,2.53,0,0,0,.09-.55.52.52,0,0,0-.19-.34.69.69,0,0,0-.46-.15,1.5,1.5,0,0,0-.82.31,1.69,1.69,0,0,0-.61,1l-.57,2.15h-.65l.67-2.52a.69.69,0,0,0-.07-.71.73.73,0,0,0-.51-.21,1.29,1.29,0,0,0-.83.33,1.56,1.56,0,0,0-.54.82l-.61,2.29h-.64l1-3.82h.57l-.2.73a2,2,0,0,1,1.55-.84.89.89,0,0,1,1,.92,2,2,0,0,1,1.6-.92,1,1,0,0,1,.7.22.76.76,0,0,1,.3.52,2.9,2.9,0,0,1-.12.81Z" transform="translate(-5.87 5.96)"/></svg>